__________________  Visit us at our Semi Public Bittorrent Community ____________________
  
http://p2pdl.com  ____________________________________  http://p2pdl.com

 
http://ultraimg.com/images/2CGan.jpg


Game of Thrones S03E10 480p HDTV x264 - VYTO

Game of Thrones S03E10 (Mhysa)

IMDB:  
http://www.imdb.com/title/tt2178796/


Format                         : MPEG-4
Format profile                 : Base Media
Codec ID                       : isom
File size                      : 204 MiB
Duration                       : 1h 4mn
Overall bit rate               : 443 Kbps

Video
Format                         : AVC
Bit rate                       : 400 Kbps
Width                          : 720 pixels
Height                         : 400 pixels
Display aspect ratio           : 16:9
Frame rate mode                : Constant
Frame rate                     : 23.976 fps
Stream size                    : 184 MiB (90%)
Writing library                : x264 core 130 r2273

Audio
ID                             : 2
Format                         : AAC
Bit rate mode                  : Variable
Bit rate                       : 40.0 Kbps
Channel(s)                     : 2 channels
Channel positions              : Front: L R
Sampling rate                  : 44.1 KHz
Stream size                    : 18.4 MiB (9%)
Language                       : English

Subtitle                       : Yes (English)
Source                         : 720p.HDTV.x264-EVOLVE (Thanks)

Screens:
 
http://ultraimg.com/images/iBvh.png 
http://ultraimg.com/images/VFxKO.png 
http://ultraimg.com/images/mnesB.png 
http://ultraimg.com/images/VUD4p.png 
http://ultraimg.com/images/sMZ5.png 
http://ultraimg.com/images/25Ak.png

----------------------------------------------------------------------------------------------------


Encoded using revolutionary 10bit encoding, which enables us to provide you more crispier 
and sharper images at small sizes, just make sure you follow our instructions without a fault.
Recommend to you to use latest version of VLC player. Install K-Lite Codec Pack or shark007 codecs
in case of any kind of problem in playback (For non-VLC Media Player users). Alternatively, install
Core AVC codecs, the fastest decoder that there is coupled with Community Center Codec Pack and play
on Windows Media Player Classic. Check sample to be sure.
Enjoy!

Encoder Notes:Looking For Early Access To Anything You Can Provide DVDScr, R5, DVDR, BluRay, Direct
Audio, Music Releases and Seedboxes. We require dedicated servers, so as to do more 
and fast releases of movies.
If You Got anything to offer please contact us at "contact@p2pdl.com".

Face book Fan Page:  